<svg width="160" height="160" viewBox="0 0 160 160" fill="none" xmlns="http://www.w3.org/2000/svg">
<mask id="mask0" mask-type="alpha" maskUnits="userSpaceOnUse" x="32" y="66" width="95" height="84">
<rect x="32.7842" y="66.6666" width="93.3333" height="82.6667" rx="5.10663" fill="#C4C4C4"/>
</mask>
<g mask="url(#mask0)">
<path fill-rule="evenodd" clip-rule="evenodd" d="M90.7117 123.466C87.8222 128.552 85.0496 134.538 81.6821 139.2C76.5989 140.546 70.8492 137.149 72.3869 130.666C75.0958 119.232 85.6923 102.008 92.0396 93.333C94.0686 90.5597 98.1346 83.5144 102.663 84.533C109.302 87.7624 101.3 99.0557 99.4758 103.466L107.177 96.2663C112.097 91.8818 117.334 87.8708 122.847 84.2664C125.053 84.437 126.1 85.1064 127.627 85.8664C128.777 84.2877 128.158 79.605 128.158 77.0664C128.158 65.2264 124.482 63.9998 112.755 63.9998L99.4758 64.2664C98.3232 66.6664 97.1723 69.0664 96.0233 71.4664C95.6692 73.8664 95.315 76.2664 94.9609 78.6664C94.8706 78.933 94.783 79.1997 94.6954 79.4664C93.0833 81.037 86.9432 81.4797 85.6657 80.7997C87.1238 74.5651 91.7289 70.3997 93.8986 65.0664L94.6954 64.2664L35.7373 63.9998C33.3019 65.0344 31.079 65.0078 29.629 66.9331C26.0517 71.6771 27.9346 98.173 28.0355 106.933C33.5914 103.24 40.4778 91.181 48.2194 90.933C49.3587 91.9997 50.1262 92.5837 50.344 94.6663C44.8944 100.498 30.1203 114.52 28.0355 122.133C27.037 125.781 27.4406 144.888 28.5667 147.466C29.4856 149.57 31.5783 150.442 33.3471 151.733C42.5334 150.069 60.3058 122.546 64.154 113.333C65.5695 109.941 69.9091 99.885 66.5442 95.9997C64.9667 93.0663 57.7589 94.133 54.8588 91.9997C54.4286 90.4984 54.0063 88.357 54.8588 86.933C55.9875 84.6344 57.9661 84.709 60.7015 83.9997C69.8294 81.637 77.6984 84.557 80.0886 91.4664C81.9477 96.8157 80.5003 104.44 79.0263 109.066C75.4729 120.202 59.942 145.789 50.8752 150.133L49.2817 152H106.646C101.776 142.577 96.9067 133.155 92.0396 123.733L90.7117 123.466ZM128.158 110.4C128.158 105.944 129.6 96.549 127.627 93.333C122.714 99.229 116.343 104.925 110.896 110.4L105.318 116.266C104.256 119.341 106.976 123.565 107.974 125.866C111.515 134.4 115.056 142.933 118.597 151.466V152C122.634 152.018 125.277 150.933 126.83 148.533C130.232 143.272 128.158 119.117 128.158 110.4Z" fill="#024EA2"/>
</g>
<path d="M39.3914 48.3075H44.4172V28.2604H39.3914V48.3075ZM39.3914 63.2157C38.7137 63.2157 38.0737 63.0839 37.4714 62.8204C36.869 62.5569 36.3231 62.1992 35.8337 61.7475C35.3819 61.2957 35.0243 60.7498 34.7608 60.1098C34.4972 59.5075 34.3655 58.8675 34.3655 58.1898V23.2345H41.9325C42.949 23.2345 43.909 23.4228 44.8125 23.7992C45.7537 24.1757 46.5631 24.7028 47.2408 25.3804C47.9184 26.0581 48.4455 26.8675 48.822 27.8086C49.2361 28.7122 49.4431 29.691 49.4431 30.7451V45.7663C49.4431 46.8204 49.2361 47.8181 48.822 48.7592C48.4455 49.6628 47.9184 50.4534 47.2408 51.131C46.5631 51.8086 45.7537 52.3545 44.8125 52.7686C43.909 53.1451 42.949 53.3334 41.9325 53.3334H39.3914V63.2157Z" fill="#333333"/>
<path d="M62.2796 48.3075V37.4651H57.2537V48.3075H62.2796ZM59.7384 53.3334C58.6843 53.3334 57.7055 53.1451 56.802 52.7686C55.8984 52.3545 55.1078 51.8086 54.4302 51.131C53.7525 50.4534 53.2255 49.6628 52.849 48.7592C52.4725 47.8181 52.2843 46.8204 52.2843 45.7663V39.8934C52.2843 38.8392 52.4725 37.8604 52.849 36.9569C53.2255 36.0157 53.7525 35.2063 54.4302 34.5286C55.1078 33.851 55.8984 33.3239 56.802 32.9475C57.7055 32.5334 58.6843 32.3263 59.7384 32.3263H62.2796V28.2604H52.2843V23.2345H59.7384C60.7925 23.2345 61.7714 23.4228 62.6749 23.7992C63.6161 24.1757 64.4255 24.7028 65.1031 25.3804C65.7808 26.0581 66.3078 26.8675 66.6843 27.8086C67.0984 28.7122 67.3055 29.7098 67.3055 30.8016V53.3334H59.7384Z" fill="#333333"/>
<path d="M70.152 30.7451C70.152 29.691 70.3402 28.7122 70.7167 27.8086C71.0931 26.8675 71.6202 26.0581 72.2978 25.3804C72.9755 24.7028 73.7661 24.1757 74.6696 23.7992C75.5731 23.4228 76.552 23.2345 77.6061 23.2345H85.1731V55.6486C85.1731 56.6651 84.9661 57.6251 84.552 58.5286C84.1755 59.4698 83.6484 60.2792 82.9708 60.9569C82.2931 61.6345 81.4837 62.1804 80.5425 62.5945C79.639 63.0086 78.6602 63.2157 77.6061 63.2157H70.152V58.1898H80.1472V53.3334H77.6061C76.552 53.3334 75.5731 53.1451 74.6696 52.7686C73.7661 52.3545 72.9755 51.8086 72.2978 51.131C71.6202 50.4534 71.0931 49.6628 70.7167 48.7592C70.3402 47.8181 70.152 46.8204 70.152 45.7663V30.7451ZM75.1214 28.2604V48.3075H80.1472V28.2604H75.1214Z" fill="#333333"/>
<path d="M103.154 53.3334H95.6431C94.6267 53.3334 93.6478 53.1451 92.7067 52.7686C91.8031 52.3545 91.0125 51.8086 90.3349 51.131C89.6572 50.4157 89.1114 49.6063 88.6973 48.7028C88.2831 47.7992 88.0761 46.8392 88.0761 45.8228V23.2345H93.1584V48.3075H98.1843V23.2345H103.154V53.3334Z" fill="#333333"/>
<path d="M121.019 46.0486C121.019 47.1404 120.812 48.1381 120.398 49.0416C120.021 49.9451 119.494 50.7357 118.816 51.4134C118.139 52.091 117.329 52.6181 116.388 52.9945C115.485 53.371 114.506 53.5592 113.452 53.5592C112.398 53.5592 111.419 53.371 110.515 52.9945C109.612 52.6181 108.821 52.091 108.143 51.4134C107.466 50.7357 106.939 49.9451 106.562 49.0416C106.186 48.1381 105.998 47.1404 105.998 46.0486V30.5192C105.998 29.4651 106.186 28.4675 106.562 27.5263C106.939 26.5851 107.466 25.7757 108.143 25.0981C108.821 24.3828 109.612 23.8369 110.515 23.4604C111.419 23.0463 112.398 22.8392 113.452 22.8392C114.506 22.8392 115.485 23.0463 116.388 23.4604C117.329 23.8369 118.139 24.3828 118.816 25.0981C119.494 25.7757 120.021 26.5851 120.398 27.5263C120.812 28.4675 121.019 29.4651 121.019 30.5192V46.0486ZM110.967 28.2604V48.3075H115.993V28.2604H110.967Z" fill="#333333"/>
<path fill-rule="evenodd" clip-rule="evenodd" d="M44.141 91.6819C44.141 91.6819 46.7693 90.1038 49.0303 91.6818C51.4184 93.3485 49.3976 96.7067 49.3976 96.7067C39.0795 107.751 29.5464 116.66 23.1968 131.596C21.3713 135.884 16.5827 148.551 22.6677 151.682C25.0488 152.913 28.7686 152.04 31.3984 152.455C32.4355 153.778 33.1551 154.664 32.7212 156.832C31.0783 158.91 28.4882 159.006 25.3134 159.665C13.4396 162.142 7.4756 150.449 9.97311 138.966C14.9073 116.236 28.0262 103.875 44.141 91.6819Z" fill="#CE3E33"/>
<path fill-rule="evenodd" clip-rule="evenodd" d="M44.141 91.6819C44.141 91.6819 46.7693 90.1038 49.0303 91.6818C51.4184 93.3485 49.3976 96.7067 49.3976 96.7067C39.0795 107.751 29.5464 116.66 23.1968 131.596C21.3713 135.884 16.5827 148.551 22.6677 151.682C25.0488 152.913 28.7686 152.04 31.3984 152.455C32.4355 153.778 33.1551 154.664 32.7212 156.832C31.0783 158.91 28.4882 159.006 25.3134 159.665C13.4396 162.142 7.4756 150.449 9.97311 138.966C14.9073 116.236 28.0262 103.875 44.141 91.6819Z" fill="#CE3E33"/>
</svg>
