<svg width="32" height="32" viewBox="0 0 32 32" fill="none" xmlns="http://www.w3.org/2000/svg">
<path d="M28.0616 24.1983V28.2726C28.0632 28.6508 27.9856 29.0252 27.8337 29.3718C27.6819 29.7183 27.4593 30.0294 27.18 30.2851C26.9008 30.5408 26.5711 30.7355 26.2121 30.8566C25.8531 30.9778 25.4728 31.0228 25.0953 30.9888C20.9083 30.5347 16.8863 29.1067 13.3525 26.8194C10.0649 24.7343 7.2775 21.9523 5.18838 18.6709C2.88877 15.128 1.45768 11.0941 1.01104 6.89631C0.977041 6.52075 1.02176 6.14224 1.14235 5.78488C1.26294 5.42752 1.45677 5.09914 1.71148 4.82064C1.9662 4.54214 2.27622 4.31962 2.62182 4.16726C2.96742 4.0149 3.34102 3.93603 3.71883 3.93568H7.80091C8.46126 3.92919 9.10145 4.16259 9.60215 4.59236C10.1028 5.02213 10.4299 5.61896 10.5223 6.27159C10.6946 7.57544 11.0141 8.85566 11.4748 10.0878C11.6579 10.5739 11.6975 11.1022 11.589 11.6101C11.4804 12.1179 11.2283 12.5841 10.8625 12.9534L9.13439 14.6781C11.0714 18.0782 13.892 20.8934 17.2986 22.8267L19.0266 21.1019C19.3966 20.7368 19.8637 20.4851 20.3725 20.3768C20.8814 20.2685 21.4107 20.308 21.8977 20.4908C23.1322 20.9505 24.4149 21.2695 25.7213 21.4414C26.3822 21.5345 26.9859 21.8668 27.4174 22.3751C27.8489 22.8834 28.0782 23.5323 28.0616 24.1983Z" fill="#024EA2" stroke="#024EA2" stroke-linecap="round" stroke-linejoin="round"/>
<path d="M18.6035 8.01136C19.9326 8.27016 21.154 8.91891 22.1115 9.87457C23.069 10.8302 23.719 12.0493 23.9783 13.3758M20.1825 1C22.9438 1.30616 25.5186 2.54031 27.4843 4.4998C29.4501 6.45929 30.6898 9.02766 31.0001 11.7832" stroke="#024EA2" stroke-width="2" stroke-linecap="round" stroke-linejoin="round"/>
</svg>
