<svg width="40" height="40" viewBox="0 0 40 40" fill="none" xmlns="http://www.w3.org/2000/svg">
<path fill-rule="evenodd" clip-rule="evenodd" d="M40 20C40 31.0457 31.0457 40 20 40C8.9543 40 0 31.0457 0 20C0 8.9543 8.9543 0 20 0C31.0457 0 40 8.9543 40 20ZM28.2424 13.75H11.7578C11.4872 13.75 11.2339 13.8046 11.0047 13.8946L19.961 21.2432L21.9684 19.6603L21.9686 19.6601L21.9688 19.66L28.9958 13.8947C28.7665 13.8046 28.5131 13.75 28.2424 13.75ZM23.2109 20.0028L29.8236 14.5773C29.9332 14.7653 29.9996 14.9731 29.9996 15.195V24.8104C29.9996 25.0324 29.9331 25.2403 29.8234 25.4283L23.2109 20.0028ZM10.1762 14.5773C10.0665 14.7654 10 14.9732 10 15.1953V24.8106C10 25.0325 10.0664 25.2404 10.176 25.4284L16.7887 20.0029L10.1762 14.5773ZM20.374 22.2636L22.3817 20.6805L28.9942 26.1061C28.765 26.196 28.5117 26.2506 28.2411 26.2506H11.7565C11.4858 26.2506 11.2323 26.196 11.0031 26.1059L17.616 20.6805L19.5455 22.2636C19.6599 22.3575 19.8099 22.4045 19.9598 22.4045C20.1097 22.4045 20.2596 22.3575 20.374 22.2636Z" fill="#024EA2"/>
</svg>
