<svg width="22" height="22" viewBox="0 0 22 22" fill="none" xmlns="http://www.w3.org/2000/svg">
<g clip-path="url(#clip0_265_7217)">
<path d="M5.95833 0C5.10743 0 4.29138 0.33802 3.6897 0.939699C3.08802 1.54138 2.75 2.35743 2.75 3.20833V18.7917C2.75 19.6426 3.08802 20.4586 3.6897 21.0603C4.29138 21.662 5.10743 22 5.95833 22C6.80924 22 7.62529 21.662 8.22697 21.0603C8.82865 20.4586 9.16667 19.6426 9.16667 18.7917V3.20833C9.16667 2.35743 8.82865 1.54138 8.22697 0.939699C7.62529 0.33802 6.80924 0 5.95833 0Z" fill="#024EA2"/>
<path d="M16.0413 0C15.1904 0 14.3744 0.33802 13.7727 0.939699C13.171 1.54138 12.833 2.35743 12.833 3.20833V18.7917C12.833 19.6426 13.171 20.4586 13.7727 21.0603C14.3744 21.662 15.1904 22 16.0413 22C16.8922 22 17.7083 21.662 18.31 21.0603C18.9117 20.4586 19.2497 19.6426 19.2497 18.7917V3.20833C19.2497 2.35743 18.9117 1.54138 18.31 0.939699C17.7083 0.33802 16.8922 0 16.0413 0Z" fill="#024EA2"/>
</g>
<defs>
<clipPath id="clip0_265_7217">
<rect width="22" height="22" fill="white"/>
</clipPath>
</defs>
</svg>
