<svg width="18" height="22" viewBox="0 0 18 22" fill="none" xmlns="http://www.w3.org/2000/svg">
<path d="M15.9555 7.06861L7.65469 0.946994C7.00635 0.469523 6.23921 0.181934 5.4383 0.116106C4.63739 0.0502777 3.834 0.208781 3.11718 0.574047C2.40035 0.939312 1.7981 1.49707 1.37717 2.1855C0.956245 2.87393 0.733084 3.66614 0.732427 4.47432V16.7237C0.731177 17.5327 0.953171 18.3261 1.3737 19.0157C1.79422 19.7053 2.39679 20.264 3.11431 20.6296C3.83183 20.9953 4.63617 21.1535 5.43778 21.0866C6.2394 21.0198 7.00684 20.7305 7.65469 20.251L15.9555 14.1294C16.5063 13.7229 16.9541 13.1916 17.2629 12.5787C17.5716 11.9657 17.7324 11.2883 17.7324 10.6012C17.7324 9.91409 17.5716 9.23665 17.2629 8.62369C16.9541 8.01074 16.5063 7.47951 15.9555 7.07299V7.06861Z" fill="#024EA2"/>
</svg>
