<svg width="24" height="24" viewBox="0 0 24 24" fill="black" xmlns="http://www.w3.org/2000/svg">
<g clip-path="url(#clip0_375_7884)">
<path d="M12.0088 8C11.2183 8 10.4455 8.2346 9.78815 8.67412C9.13083 9.11365 8.61851 9.73836 8.31598 10.4693C8.01345 11.2002 7.93429 12.0044 8.08852 12.7804C8.24275 13.5563 8.62344 14.269 9.18244 14.8284C9.74144 15.3878 10.4537 15.7688 11.229 15.9231C12.0044 16.0775 12.8081 15.9983 13.5384 15.6955C14.2688 15.3928 14.8931 14.8801 15.3323 14.2223C15.7715 13.5645 16.0059 12.7911 16.0059 12C16.0059 10.9391 15.5848 9.92172 14.8352 9.17157C14.0856 8.42143 13.0689 8 12.0088 8ZM12.0088 14C11.6135 14 11.2271 13.8827 10.8985 13.6629C10.5698 13.4432 10.3137 13.1308 10.1624 12.7654C10.0111 12.3999 9.97155 11.9978 10.0487 11.6098C10.1258 11.2219 10.3161 10.8655 10.5956 10.5858C10.8751 10.3061 11.2312 10.1156 11.6189 10.0384C12.0066 9.96126 12.4084 10.0009 12.7736 10.1522C13.1388 10.3036 13.4509 10.56 13.6705 10.8889C13.8901 11.2178 14.0074 11.6044 14.0074 12C14.0074 12.5304 13.7968 13.0391 13.422 13.4142C13.0472 13.7893 12.5389 14 12.0088 14Z" fill="black"/>
<path d="M21.2967 13.9L20.8531 13.644C21.0528 12.5564 21.0528 11.4416 20.8531 10.354L21.2967 10.098C21.6379 9.90102 21.937 9.63871 22.1769 9.32606C22.4168 9.01341 22.5928 8.65654 22.6949 8.27582C22.7969 7.8951 22.8231 7.49799 22.7718 7.10716C22.7205 6.71633 22.5928 6.33944 22.3959 5.998C22.1991 5.65656 21.937 5.35727 21.6246 5.1172C21.3121 4.87714 20.9555 4.70101 20.5751 4.59886C20.1946 4.49672 19.7978 4.47056 19.4073 4.52189C19.0167 4.57321 18.6401 4.70102 18.2989 4.898L17.8543 5.155C17.0144 4.43692 16.0492 3.88025 15.0073 3.513V3C15.0073 2.20435 14.6915 1.44129 14.1293 0.87868C13.5671 0.31607 12.8046 0 12.0095 0C11.2144 0 10.4519 0.31607 9.88974 0.87868C9.32754 1.44129 9.0117 2.20435 9.0117 3V3.513C7.96985 3.88157 7.00501 4.4396 6.16577 5.159L5.7191 4.9C5.03004 4.50218 4.21128 4.39457 3.44294 4.60086C2.6746 4.80715 2.01962 5.31044 1.62208 6C1.22455 6.68956 1.11702 7.50892 1.32316 8.27782C1.5293 9.04672 2.03222 9.70218 2.72128 10.1L3.16496 10.356C2.96522 11.4436 2.96522 12.5584 3.16496 13.646L2.72128 13.902C2.03222 14.2998 1.5293 14.9553 1.32316 15.7242C1.11702 16.4931 1.22455 17.3124 1.62208 18.002C2.01962 18.6916 2.6746 19.1948 3.44294 19.4011C4.21128 19.6074 5.03004 19.4998 5.7191 19.102L6.16377 18.845C7.00393 19.5632 7.96944 20.1199 9.0117 20.487V21C9.0117 21.7956 9.32754 22.5587 9.88974 23.1213C10.4519 23.6839 11.2144 24 12.0095 24C12.8046 24 13.5671 23.6839 14.1293 23.1213C14.6915 22.5587 15.0073 21.7956 15.0073 21V20.487C16.0492 20.1184 17.014 19.5604 17.8533 18.841L18.2999 19.099C18.989 19.4968 19.8077 19.6044 20.5761 19.3981C21.3444 19.1918 21.9994 18.6886 22.3969 17.999C22.7945 17.3094 22.902 16.4901 22.6959 15.7212C22.4897 14.9523 21.9868 14.2968 21.2977 13.899L21.2967 13.9ZM18.7506 10.124C19.089 11.3511 19.089 12.6469 18.7506 13.874C18.6915 14.0876 18.705 14.3147 18.7889 14.5198C18.8728 14.7249 19.0225 14.8963 19.2143 15.007L20.2975 15.633C20.5271 15.7656 20.6947 15.9841 20.7634 16.2403C20.8321 16.4966 20.7962 16.7697 20.6637 16.9995C20.5312 17.2293 20.3129 17.397 20.0568 17.4658C19.8007 17.5345 19.5278 17.4986 19.2982 17.366L18.213 16.738C18.021 16.6267 17.7975 16.5826 17.5777 16.6124C17.3579 16.6423 17.1542 16.7445 16.9989 16.903C16.1094 17.8117 14.9889 18.46 13.7582 18.778C13.5434 18.8333 13.3531 18.9585 13.2172 19.1339C13.0814 19.3094 13.0077 19.525 13.0078 19.747V21C13.0078 21.2652 12.9025 21.5196 12.7151 21.7071C12.5277 21.8946 12.2735 22 12.0085 22C11.7435 22 11.4893 21.8946 11.3019 21.7071C11.1145 21.5196 11.0092 21.2652 11.0092 21V19.748C11.0094 19.526 10.9357 19.3104 10.7998 19.1349C10.6639 18.9595 10.4736 18.8343 10.2588 18.779C9.02803 18.4597 7.90783 17.81 7.01915 16.9C6.86379 16.7415 6.66015 16.6393 6.44033 16.6094C6.22051 16.5796 5.997 16.6237 5.80504 16.735L4.72182 17.362C4.60814 17.4287 4.48239 17.4722 4.35182 17.4901C4.22125 17.508 4.08844 17.4998 3.96103 17.4661C3.83363 17.4324 3.71414 17.3738 3.60946 17.2937C3.50477 17.2136 3.41695 17.1135 3.35106 16.9993C3.28517 16.8851 3.2425 16.759 3.22551 16.6282C3.20853 16.4974 3.21756 16.3646 3.25209 16.2373C3.28661 16.11 3.34596 15.9909 3.4267 15.8866C3.50744 15.7824 3.60799 15.6952 3.72255 15.63L4.80576 15.004C4.99757 14.8933 5.14719 14.7219 5.23111 14.5168C5.31504 14.3117 5.32851 14.0846 5.26943 13.871C4.93103 12.6439 4.93103 11.3481 5.26943 10.121C5.32745 9.90788 5.31333 9.68153 5.22927 9.47729C5.14521 9.27305 4.99594 9.10241 4.80476 8.992L3.72155 8.366C3.49191 8.23339 3.32431 8.01492 3.25563 7.75865C3.18695 7.50239 3.22281 7.22931 3.35532 6.9995C3.48783 6.76969 3.70614 6.60197 3.96222 6.53324C4.21831 6.46451 4.49118 6.50039 4.72083 6.633L5.80603 7.261C5.99747 7.37251 6.22051 7.41721 6.4401 7.38807C6.65969 7.35893 6.86337 7.25759 7.01915 7.1C7.90859 6.19134 9.02911 5.54302 10.2598 5.225C10.4753 5.16956 10.6661 5.04375 10.802 4.8675C10.938 4.69125 11.0112 4.47464 11.0102 4.252V3C11.0102 2.73478 11.1155 2.48043 11.3029 2.29289C11.4903 2.10536 11.7445 2 12.0095 2C12.2745 2 12.5287 2.10536 12.7161 2.29289C12.9035 2.48043 13.0088 2.73478 13.0088 3V4.252C13.0087 4.47396 13.0824 4.68964 13.2182 4.86508C13.3541 5.04052 13.5444 5.16573 13.7592 5.221C14.9904 5.54015 16.1109 6.18988 16.9999 7.1C17.1552 7.25847 17.3589 7.36069 17.5787 7.39057C17.7985 7.42044 18.022 7.37626 18.214 7.265L19.2972 6.638C19.4109 6.5713 19.5366 6.52777 19.6672 6.5099C19.7978 6.49204 19.9306 6.50019 20.058 6.5339C20.1854 6.56761 20.3049 6.6262 20.4096 6.70631C20.5143 6.78642 20.6021 6.88646 20.668 7.00067C20.7339 7.11488 20.7765 7.24101 20.7935 7.37179C20.8105 7.50257 20.8015 7.63542 20.7669 7.76269C20.7324 7.88997 20.6731 8.00915 20.5923 8.11337C20.5116 8.2176 20.411 8.30482 20.2965 8.37L19.2133 8.996C19.0224 9.10671 18.8736 9.27748 18.7899 9.48169C18.7062 9.68591 18.6924 9.9121 18.7506 10.125V10.124Z" fill="black"/>
</g>
<defs>
<clipPath id="clip0_375_7884">
<rect width="23.9825" height="24" fill="black" transform="translate(0.0175781)"/>
</clipPath>
</defs>
</svg>
