<svg width="24" height="24" viewBox="0 0 24 24" fill="none" xmlns="http://www.w3.org/2000/svg">
<g clip-path="url(#clip0_78_11088)">
<path d="M23.954 5.54297L15.536 13.961C14.5974 14.8972 13.3257 15.423 12 15.423C10.6743 15.423 9.40263 14.8972 8.464 13.961L0.046 5.54297C0.032 5.70097 0 5.84397 0 6.00097V18.001C0.00158786 19.3266 0.528882 20.5974 1.46622 21.5347C2.40356 22.4721 3.67441 22.9994 5 23.001H19C20.3256 22.9994 21.5964 22.4721 22.5338 21.5347C23.4711 20.5974 23.9984 19.3266 24 18.001V6.00097C24 5.84397 23.968 5.70097 23.954 5.54297Z" fill="#024EA2"/>
<path d="M14.1221 12.546L23.2561 3.411C22.8137 2.67732 22.1896 2.07004 21.4441 1.64773C20.6986 1.22542 19.8569 1.00234 19.0001 1H5.00014C4.14336 1.00234 3.30164 1.22542 2.55617 1.64773C1.81069 2.07004 1.18662 2.67732 0.744141 3.411L9.87814 12.546C10.4417 13.1073 11.2047 13.4225 12.0001 13.4225C12.7956 13.4225 13.5586 13.1073 14.1221 12.546Z" fill="#024EA2"/>
</g>
<defs>
<clipPath id="clip0_78_11088">
<rect width="24" height="24" fill="white"/>
</clipPath>
</defs>
</svg>
