<svg width="24" height="24" viewBox="0 0 24 24" fill="none" xmlns="http://www.w3.org/2000/svg">
<g clip-path="url(#clip0_78_11143)">
<path d="M8 7H22.5C22.8978 7 23.2794 6.84196 23.5607 6.56066C23.842 6.27936 24 5.89782 24 5.5C24 5.10218 23.842 4.72064 23.5607 4.43934C23.2794 4.15804 22.8978 4 22.5 4H8C7.60218 4 7.22064 4.15804 6.93934 4.43934C6.65804 4.72064 6.5 5.10218 6.5 5.5C6.5 5.89782 6.65804 6.27936 6.93934 6.56066C7.22064 6.84196 7.60218 7 8 7Z" fill="#024EA2"/>
<path d="M22.5 11H8C7.60218 11 7.22064 11.158 6.93934 11.4393C6.65804 11.7206 6.5 12.1022 6.5 12.5C6.5 12.8978 6.65804 13.2794 6.93934 13.5607C7.22064 13.842 7.60218 14 8 14H22.5C22.8978 14 23.2794 13.842 23.5607 13.5607C23.842 13.2794 24 12.8978 24 12.5C24 12.1022 23.842 11.7206 23.5607 11.4393C23.2794 11.158 22.8978 11 22.5 11Z" fill="#024EA2"/>
<path d="M22.5 18H8C7.60218 18 7.22064 18.158 6.93934 18.4393C6.65804 18.7206 6.5 19.1022 6.5 19.5C6.5 19.8978 6.65804 20.2794 6.93934 20.5607C7.22064 20.842 7.60218 21 8 21H22.5C22.8978 21 23.2794 20.842 23.5607 20.5607C23.842 20.2794 24 19.8978 24 19.5C24 19.1022 23.842 18.7206 23.5607 18.4393C23.2794 18.158 22.8978 18 22.5 18Z" fill="#024EA2"/>
<path d="M2.5 8C3.88071 8 5 6.88071 5 5.5C5 4.11929 3.88071 3 2.5 3C1.11929 3 0 4.11929 0 5.5C0 6.88071 1.11929 8 2.5 8Z" fill="#024EA2"/>
<path d="M2.5 14.5C3.88071 14.5 5 13.3807 5 12C5 10.6193 3.88071 9.5 2.5 9.5C1.11929 9.5 0 10.6193 0 12C0 13.3807 1.11929 14.5 2.5 14.5Z" fill="#024EA2"/>
<path d="M2.5 21.5C3.88071 21.5 5 20.3807 5 19C5 17.6193 3.88071 16.5 2.5 16.5C1.11929 16.5 0 17.6193 0 19C0 20.3807 1.11929 21.5 2.5 21.5Z" fill="#024EA2"/>
</g>
<defs>
<clipPath id="clip0_78_11143">
<rect width="24" height="24" fill="white"/>
</clipPath>
</defs>
</svg>
