<svg width="24" height="24" viewBox="0 0 24 24" fill="none" xmlns="http://www.w3.org/2000/svg">
<path d="M19 1H5C3.67441 1.00159 2.40356 1.52888 1.46622 2.46622C0.528882 3.40356 0.00158786 4.67441 0 6L0 18C0.00158786 19.3256 0.528882 20.5964 1.46622 21.5338C2.40356 22.4711 3.67441 22.9984 5 23H19C20.3256 22.9984 21.5964 22.4711 22.5338 21.5338C23.4711 20.5964 23.9984 19.3256 24 18V6C23.9984 4.67441 23.4711 3.40356 22.5338 2.46622C21.5964 1.52888 20.3256 1.00159 19 1ZM5 3H19C19.7956 3 20.5587 3.31607 21.1213 3.87868C21.6839 4.44129 22 5.20435 22 6V7H2V6C2 5.20435 2.31607 4.44129 2.87868 3.87868C3.44129 3.31607 4.20435 3 5 3ZM19 21H5C4.20435 21 3.44129 20.6839 2.87868 20.1213C2.31607 19.5587 2 18.7956 2 18V9H22V18C22 18.7956 21.6839 19.5587 21.1213 20.1213C20.5587 20.6839 19.7956 21 19 21ZM19 13C19 13.2652 18.8946 13.5196 18.7071 13.7071C18.5196 13.8946 18.2652 14 18 14H6C5.73478 14 5.48043 13.8946 5.29289 13.7071C5.10536 13.5196 5 13.2652 5 13C5 12.7348 5.10536 12.4804 5.29289 12.2929C5.48043 12.1054 5.73478 12 6 12H18C18.2652 12 18.5196 12.1054 18.7071 12.2929C18.8946 12.4804 19 12.7348 19 13ZM15 17C15 17.2652 14.8946 17.5196 14.7071 17.7071C14.5196 17.8946 14.2652 18 14 18H6C5.73478 18 5.48043 17.8946 5.29289 17.7071C5.10536 17.5196 5 17.2652 5 17C5 16.7348 5.10536 16.4804 5.29289 16.2929C5.48043 16.1054 5.73478 16 6 16H14C14.2652 16 14.5196 16.1054 14.7071 16.2929C14.8946 16.4804 15 16.7348 15 17ZM3 5C3 4.80222 3.05865 4.60888 3.16853 4.44443C3.27841 4.27998 3.43459 4.15181 3.61732 4.07612C3.80004 4.00043 4.00111 3.98063 4.19509 4.01921C4.38907 4.0578 4.56725 4.15304 4.70711 4.29289C4.84696 4.43275 4.9422 4.61093 4.98079 4.80491C5.01937 4.99889 4.99957 5.19996 4.92388 5.38268C4.84819 5.56541 4.72002 5.72159 4.55557 5.83147C4.39112 5.94135 4.19778 6 4 6C3.73478 6 3.48043 5.89464 3.29289 5.70711C3.10536 5.51957 3 5.26522 3 5ZM6 5C6 4.80222 6.05865 4.60888 6.16853 4.44443C6.27841 4.27998 6.43459 4.15181 6.61732 4.07612C6.80004 4.00043 7.00111 3.98063 7.19509 4.01921C7.38907 4.0578 7.56725 4.15304 7.70711 4.29289C7.84696 4.43275 7.9422 4.61093 7.98079 4.80491C8.01937 4.99889 7.99957 5.19996 7.92388 5.38268C7.84819 5.56541 7.72002 5.72159 7.55557 5.83147C7.39112 5.94135 7.19778 6 7 6C6.73478 6 6.48043 5.89464 6.29289 5.70711C6.10536 5.51957 6 5.26522 6 5ZM9 5C9 4.80222 9.05865 4.60888 9.16853 4.44443C9.27841 4.27998 9.43459 4.15181 9.61732 4.07612C9.80004 4.00043 10.0011 3.98063 10.1951 4.01921C10.3891 4.0578 10.5673 4.15304 10.7071 4.29289C10.847 4.43275 10.9422 4.61093 10.9808 4.80491C11.0194 4.99889 10.9996 5.19996 10.9239 5.38268C10.8482 5.56541 10.72 5.72159 10.5556 5.83147C10.3911 5.94135 10.1978 6 10 6C9.73478 6 9.48043 5.89464 9.29289 5.70711C9.10536 5.51957 9 5.26522 9 5Z" fill="#98B4D6"/>
</svg>
