<svg width="24" height="24" viewBox="0 0 24 24" fill="none" xmlns="http://www.w3.org/2000/svg">
<path d="M20.7132 8.26728L11.8812 1.7868C11.1914 1.28168 10.3752 0.977478 9.52306 0.907923C8.67092 0.838368 7.81616 1.00618 7.05357 1.39275C6.29097 1.77932 5.65034 2.36954 5.20271 3.09797C4.75508 3.8264 4.51794 4.66458 4.51758 5.51956V18.4805C4.51773 19.3359 4.75489 20.1745 5.20273 20.9032C5.65057 21.632 6.29157 22.2224 7.05461 22.6089C7.81765 22.9955 8.67287 23.1631 9.52536 23.0931C10.3779 23.023 11.1943 22.7182 11.884 22.2123L20.716 15.7319C21.3023 15.3019 21.779 14.7399 22.1076 14.0914C22.4363 13.4429 22.6075 12.7261 22.6075 11.9991C22.6075 11.2721 22.4363 10.5553 22.1076 9.90678C21.779 9.25827 21.3023 8.69629 20.716 8.26635L20.7132 8.26728ZM19.6171 14.2386L10.7851 20.719C10.3713 21.0214 9.8819 21.2034 9.37106 21.2449C8.86021 21.2863 8.34787 21.1856 7.89073 20.9538C7.43359 20.7221 7.04948 20.3684 6.78093 19.9319C6.51238 19.4953 6.36986 18.993 6.36914 18.4805V5.51956C6.364 5.00607 6.50384 4.50155 6.77258 4.06397C7.04131 3.62639 7.42805 3.27351 7.88835 3.04587C8.27986 2.84672 8.7128 2.74269 9.15204 2.74221C9.74074 2.74446 10.3132 2.93559 10.7851 3.28749L19.6171 9.76797C19.9684 10.026 20.2541 10.3631 20.451 10.752C20.6479 11.1408 20.7505 11.5706 20.7505 12.0065C20.7505 12.4424 20.6479 12.8722 20.451 13.2611C20.2541 13.65 19.9684 13.987 19.6171 14.2451V14.2386Z" fill="#98B4D6"/>
</svg>
