<svg width="40" height="40" viewBox="0 0 40 40" fill="none" xmlns="http://www.w3.org/2000/svg">
<path fill-rule="evenodd" clip-rule="evenodd" d="M15.75 27.125C17 27.875 18.5 28.25 20 28.25C24.625 28.25 28.25 24.5 28.25 20.125C28.25 17.875 27.5 15.875 25.875 14.25C24.25 12.75 22.25 11.875 20 11.875C15.5 11.875 11.75 15.625 11.75 20.125C11.75 21.625 12.125 23.125 13 24.5L13.25 24.875L12.375 27.875L15.5 27L15.75 27.125ZM22.75 21.25C23 21.25 24.25 21.875 24.5 22C24.5389 22.0195 24.5779 22.0359 24.6163 22.0521C24.8248 22.1402 25.0195 22.2223 25.125 22.75C25.25 22.75 25.25 23.25 25 23.875C24.875 24.375 23.875 25 23.375 25C23.2903 25 23.2092 25.0072 23.1225 25.0148C22.6977 25.0524 22.14 25.1018 20.375 24.375C18.1844 23.4988 16.6656 21.3749 16.2392 20.7785C16.1789 20.6942 16.1405 20.6405 16.125 20.625C16.1037 20.5824 16.0607 20.5145 16.0039 20.4249C15.7274 19.9883 15.125 19.0372 15.125 18C15.125 16.75 15.75 16.125 16 15.875C16.25 15.625 16.5 15.625 16.625 15.625H17.125C17.25 15.625 17.5 15.625 17.625 16C17.875 16.5 18.375 17.75 18.375 17.875C18.375 17.9167 18.3889 17.9583 18.4028 18C18.4306 18.0833 18.4583 18.1667 18.375 18.25C18.3125 18.3125 18.2813 18.375 18.25 18.4375C18.2188 18.5 18.1875 18.5625 18.125 18.625L17.75 19C17.625 19.125 17.5 19.25 17.625 19.5C17.75 19.75 18.25 20.625 19 21.25C19.8439 21.9884 20.5097 22.2817 20.8473 22.4304C20.9097 22.4579 20.961 22.4805 21 22.5C21.25 22.5 21.375 22.5 21.5 22.375C21.5625 22.25 21.7188 22.0625 21.875 21.875C22.0312 21.6875 22.1875 21.5 22.25 21.375C22.375 21.125 22.5 21.125 22.75 21.25Z" fill="#024EA2"/>
<path fill-rule="evenodd" clip-rule="evenodd" d="M0 20C0 8.95431 8.95431 0 20 0C31.0457 0 40 8.95431 40 20C40 31.0457 31.0457 40 20 40C8.95431 40 0 31.0457 0 20ZM20 10C22.625 10 25.125 11 27 12.875C28.875 14.75 30 17.25 30 19.875C30 25.375 25.5 29.875 20 29.875C18.375 29.875 16.75 29.375 15.25 28.625L10 30L11.375 25C10.5 23.5 10 21.75 10 20C10 14.5 14.5 10 20 10Z" fill="#024EA2"/>
</svg>
